<mxfile host="65bd71144e" modified="2021-02-28T20:40:03.143Z" agent="5.0 (Windows NT 10.0; Win64; x64) AppleWebKit/537.36 (KHTML, like Gecko) Code/1.53.2 Chrome/87.0.4280.141 Electron/11.2.1 Safari/537.36" etag="tCj7I_tcW8-pg-x_sTAa" version="14.2.4" type="embed">
    <diagram id="C5RBs43oDa-KdzZeNtuy" name="Page-1">
        <mxGraphModel dx="990" dy="574" grid="1" gridSize="10" guides="1" tooltips="1" connect="1" arrows="1" fold="1" page="1" pageScale="1" pageWidth="827" pageHeight="1169" math="0" shadow="0">
            <root>
                <mxCell id="WIyWlLk6GJQsqaUBKTNV-0"/>
                <mxCell id="WIyWlLk6GJQsqaUBKTNV-1" parent="WIyWlLk6GJQsqaUBKTNV-0"/>
                <mxCell id="WIyWlLk6GJQsqaUBKTNV-2" value="" style="rounded=0;html=1;jettySize=auto;orthogonalLoop=1;fontSize=11;endArrow=block;endFill=0;endSize=8;strokeWidth=1;shadow=0;labelBackgroundColor=none;edgeStyle=orthogonalEdgeStyle;fontFamily=Verdana;" parent="WIyWlLk6GJQsqaUBKTNV-1" source="WIyWlLk6GJQsqaUBKTNV-3" edge="1">
                    <mxGeometry relative="1" as="geometry">
                        <mxPoint x="280" y="230" as="targetPoint"/>
                        <Array as="points">
                            <mxPoint x="280" y="220"/>
                        </Array>
                    </mxGeometry>
                </mxCell>
                <mxCell id="zcjfyeGeoYEevY5XhN1h-34" style="edgeStyle=orthogonalEdgeStyle;rounded=0;orthogonalLoop=1;jettySize=auto;html=1;exitX=1;exitY=0.25;exitDx=0;exitDy=0;labelBackgroundColor=#ffffff;endArrow=classic;endFill=1;fontFamily=Verdana;entryX=0;entryY=0.5;entryDx=0;entryDy=0;fillColor=#e3c800;strokeColor=#B09500;" parent="WIyWlLk6GJQsqaUBKTNV-1" source="WIyWlLk6GJQsqaUBKTNV-3" target="zcjfyeGeoYEevY5XhN1h-31" edge="1">
                    <mxGeometry relative="1" as="geometry">
                        <mxPoint x="410" y="230" as="targetPoint"/>
                    </mxGeometry>
                </mxCell>
                <mxCell id="zcjfyeGeoYEevY5XhN1h-71" value="&lt;span style=&quot;&quot;&gt;Shady/Bright QA&lt;/span&gt;" style="edgeLabel;html=1;align=center;verticalAlign=middle;resizable=0;points=[];fontFamily=Verdana;labelBackgroundColor=#990000;" parent="zcjfyeGeoYEevY5XhN1h-34" vertex="1" connectable="0">
                    <mxGeometry x="0.2294" relative="1" as="geometry">
                        <mxPoint x="-5" y="-14" as="offset"/>
                    </mxGeometry>
                </mxCell>
                <mxCell id="WIyWlLk6GJQsqaUBKTNV-3" value="Grayscale" style="rounded=1;whiteSpace=wrap;html=1;fontSize=12;glass=0;strokeWidth=1;shadow=0;fontFamily=Verdana;fillColor=#f8cecc;strokeColor=#b85450;gradientColor=#ea6b66;" parent="WIyWlLk6GJQsqaUBKTNV-1" vertex="1">
                    <mxGeometry x="220" y="120" width="120" height="40" as="geometry"/>
                </mxCell>
                <mxCell id="zcjfyeGeoYEevY5XhN1h-29" style="edgeStyle=orthogonalEdgeStyle;rounded=0;orthogonalLoop=1;jettySize=auto;html=1;exitX=0.5;exitY=1;exitDx=0;exitDy=0;entryX=0.608;entryY=0.1;entryDx=0;entryDy=0;entryPerimeter=0;labelBackgroundColor=#ffffff;endArrow=classic;endFill=1;fontFamily=Verdana;" parent="WIyWlLk6GJQsqaUBKTNV-1" source="zcjfyeGeoYEevY5XhN1h-0" target="zcjfyeGeoYEevY5XhN1h-26" edge="1">
                    <mxGeometry relative="1" as="geometry">
                        <Array as="points">
                            <mxPoint x="420" y="100"/>
                            <mxPoint x="533" y="100"/>
                        </Array>
                    </mxGeometry>
                </mxCell>
                <mxCell id="zcjfyeGeoYEevY5XhN1h-30" style="edgeStyle=orthogonalEdgeStyle;rounded=0;orthogonalLoop=1;jettySize=auto;html=1;exitX=0.5;exitY=1;exitDx=0;exitDy=0;entryX=0.5;entryY=0;entryDx=0;entryDy=0;labelBackgroundColor=#ffffff;endArrow=classic;endFill=1;fontFamily=Verdana;" parent="WIyWlLk6GJQsqaUBKTNV-1" source="zcjfyeGeoYEevY5XhN1h-0" target="WIyWlLk6GJQsqaUBKTNV-3" edge="1">
                    <mxGeometry relative="1" as="geometry"/>
                </mxCell>
                <mxCell id="zcjfyeGeoYEevY5XhN1h-0" value="&lt;span style=&quot;&quot;&gt;&lt;b&gt;User Uploads Image&lt;/b&gt;&lt;/span&gt;" style="shape=process;whiteSpace=wrap;html=1;backgroundOutline=1;fontFamily=Verdana;labelBackgroundColor=none;fillColor=#dae8fc;strokeColor=#6c8ebf;gradientColor=#7ea6e0;" parent="WIyWlLk6GJQsqaUBKTNV-1" vertex="1">
                    <mxGeometry x="360" y="20" width="120" height="60" as="geometry"/>
                </mxCell>
                <mxCell id="zcjfyeGeoYEevY5XhN1h-1" value="&lt;b&gt;All jobs complete!&lt;br&gt;&lt;/b&gt;" style="shape=hexagon;perimeter=hexagonPerimeter2;whiteSpace=wrap;html=1;fillColor=#b1ddf0;strokeColor=#10739e;fontFamily=Verdana;" parent="WIyWlLk6GJQsqaUBKTNV-1" vertex="1">
                    <mxGeometry x="400" y="400" width="120" height="80" as="geometry"/>
                </mxCell>
                <mxCell id="zcjfyeGeoYEevY5XhN1h-10" style="edgeStyle=orthogonalEdgeStyle;rounded=0;orthogonalLoop=1;jettySize=auto;html=1;exitX=0.5;exitY=1;exitDx=0;exitDy=0;fontFamily=Verdana;fillColor=#e51400;strokeColor=#B20000;" parent="WIyWlLk6GJQsqaUBKTNV-1" source="zcjfyeGeoYEevY5XhN1h-3" target="zcjfyeGeoYEevY5XhN1h-8" edge="1">
                    <mxGeometry relative="1" as="geometry"/>
                </mxCell>
                <mxCell id="zcjfyeGeoYEevY5XhN1h-3" value="Resize" style="rounded=1;whiteSpace=wrap;html=1;fontFamily=Verdana;fillColor=#f8cecc;strokeColor=#b85450;gradientColor=#ea6b66;" parent="WIyWlLk6GJQsqaUBKTNV-1" vertex="1">
                    <mxGeometry x="220" y="230" width="120" height="50" as="geometry"/>
                </mxCell>
                <mxCell id="zcjfyeGeoYEevY5XhN1h-4" value="" style="rounded=0;html=1;jettySize=auto;orthogonalLoop=1;fontSize=11;endArrow=classic;endFill=1;endSize=8;strokeWidth=1;shadow=0;labelBackgroundColor=none;edgeStyle=orthogonalEdgeStyle;fontFamily=Verdana;fillColor=#e51400;strokeColor=#B20000;" parent="WIyWlLk6GJQsqaUBKTNV-1" edge="1">
                    <mxGeometry relative="1" as="geometry">
                        <mxPoint x="280" y="150" as="sourcePoint"/>
                        <mxPoint x="280" y="230" as="targetPoint"/>
                        <Array as="points">
                            <mxPoint x="280" y="220"/>
                        </Array>
                    </mxGeometry>
                </mxCell>
                <mxCell id="zcjfyeGeoYEevY5XhN1h-78" style="edgeStyle=orthogonalEdgeStyle;rounded=0;orthogonalLoop=1;jettySize=auto;html=1;exitX=1;exitY=0.5;exitDx=0;exitDy=0;entryX=0;entryY=0.7;entryDx=0;entryDy=0;labelBackgroundColor=#ffffff;endArrow=classic;endFill=1;fontFamily=Verdana;" parent="WIyWlLk6GJQsqaUBKTNV-1" source="zcjfyeGeoYEevY5XhN1h-8" target="zcjfyeGeoYEevY5XhN1h-25" edge="1">
                    <mxGeometry relative="1" as="geometry"/>
                </mxCell>
                <mxCell id="zcjfyeGeoYEevY5XhN1h-8" value="Compute average and generate hash" style="rounded=1;whiteSpace=wrap;html=1;fontFamily=Verdana;fillColor=#f8cecc;strokeColor=#b85450;gradientColor=#ea6b66;" parent="WIyWlLk6GJQsqaUBKTNV-1" vertex="1">
                    <mxGeometry x="220" y="350" width="120" height="60" as="geometry"/>
                </mxCell>
                <mxCell id="zcjfyeGeoYEevY5XhN1h-17" value="npa" style="text;html=1;strokeColor=none;fillColor=none;align=center;verticalAlign=middle;whiteSpace=wrap;rounded=0;labelBackgroundColor=#7EA6E0;fontFamily=Verdana;" parent="WIyWlLk6GJQsqaUBKTNV-1" vertex="1">
                    <mxGeometry x="320" y="270" width="40" height="20" as="geometry"/>
                </mxCell>
                <mxCell id="zcjfyeGeoYEevY5XhN1h-21" value="dims (int,int)" style="text;html=1;strokeColor=none;fillColor=none;align=center;verticalAlign=middle;whiteSpace=wrap;rounded=0;labelBackgroundColor=#FF0000;fontFamily=Verdana;" parent="WIyWlLk6GJQsqaUBKTNV-1" vertex="1">
                    <mxGeometry x="190" y="210" width="40" height="20" as="geometry"/>
                </mxCell>
                <mxCell id="zcjfyeGeoYEevY5XhN1h-22" value="None" style="text;html=1;strokeColor=none;fillColor=none;align=center;verticalAlign=middle;whiteSpace=wrap;rounded=0;labelBackgroundColor=#CC0000;fontFamily=Verdana;" parent="WIyWlLk6GJQsqaUBKTNV-1" vertex="1">
                    <mxGeometry x="190" y="330" width="40" height="20" as="geometry"/>
                </mxCell>
                <mxCell id="zcjfyeGeoYEevY5XhN1h-93" style="edgeStyle=orthogonalEdgeStyle;orthogonalLoop=1;jettySize=auto;html=1;exitX=0.5;exitY=1;exitDx=0;exitDy=0;labelBackgroundColor=#ffffff;endArrow=classic;endFill=1;fontFamily=Verdana;rounded=0;dashed=1;" parent="WIyWlLk6GJQsqaUBKTNV-1" source="zcjfyeGeoYEevY5XhN1h-25" target="zcjfyeGeoYEevY5XhN1h-92" edge="1">
                    <mxGeometry relative="1" as="geometry"/>
                </mxCell>
                <mxCell id="0" style="edgeStyle=orthogonalEdgeStyle;rounded=0;orthogonalLoop=1;jettySize=auto;html=1;fontColor=#0000CC;" edge="1" parent="WIyWlLk6GJQsqaUBKTNV-1" source="zcjfyeGeoYEevY5XhN1h-25">
                    <mxGeometry relative="1" as="geometry">
                        <mxPoint x="470" y="220" as="targetPoint"/>
                    </mxGeometry>
                </mxCell>
                <mxCell id="zcjfyeGeoYEevY5XhN1h-25" value="Insert to Analysis JSON DB" style="shape=cylinder;whiteSpace=wrap;html=1;boundedLbl=1;backgroundOutline=1;labelBackgroundColor=none;fontFamily=Verdana;fillColor=#e3c800;strokeColor=#B09500;fontColor=#ffffff;" parent="WIyWlLk6GJQsqaUBKTNV-1" vertex="1">
                    <mxGeometry x="430" y="230" width="70" height="100" as="geometry"/>
                </mxCell>
                <mxCell id="zcjfyeGeoYEevY5XhN1h-33" style="edgeStyle=orthogonalEdgeStyle;rounded=0;orthogonalLoop=1;jettySize=auto;html=1;exitX=0.5;exitY=1;exitDx=0;exitDy=0;entryX=0.5;entryY=0;entryDx=0;entryDy=0;labelBackgroundColor=#ffffff;endArrow=classic;endFill=1;fontFamily=Verdana;fillColor=#76608a;strokeColor=#432D57;" parent="WIyWlLk6GJQsqaUBKTNV-1" source="zcjfyeGeoYEevY5XhN1h-26" target="zcjfyeGeoYEevY5XhN1h-31" edge="1">
                    <mxGeometry relative="1" as="geometry"/>
                </mxCell>
                <mxCell id="zcjfyeGeoYEevY5XhN1h-26" value="Laplace Transform" style="rounded=1;whiteSpace=wrap;html=1;fontSize=12;glass=0;strokeWidth=1;shadow=0;fontFamily=Verdana;fillColor=#f8cecc;strokeColor=#b85450;gradientColor=#ea6b66;" parent="WIyWlLk6GJQsqaUBKTNV-1" vertex="1">
                    <mxGeometry x="590" y="120" width="120" height="40" as="geometry"/>
                </mxCell>
                <mxCell id="zcjfyeGeoYEevY5XhN1h-45" style="edgeStyle=orthogonalEdgeStyle;rounded=0;orthogonalLoop=1;jettySize=auto;html=1;exitX=0.25;exitY=1;exitDx=0;exitDy=0;entryX=0.25;entryY=0;entryDx=0;entryDy=0;labelBackgroundColor=#ffffff;endArrow=classic;endFill=1;fontFamily=Verdana;fillColor=#e3c800;strokeColor=#B09500;" parent="WIyWlLk6GJQsqaUBKTNV-1" source="zcjfyeGeoYEevY5XhN1h-31" target="zcjfyeGeoYEevY5XhN1h-38" edge="1">
                    <mxGeometry relative="1" as="geometry"/>
                </mxCell>
                <mxCell id="zcjfyeGeoYEevY5XhN1h-46" style="edgeStyle=orthogonalEdgeStyle;rounded=0;orthogonalLoop=1;jettySize=auto;html=1;exitX=0.75;exitY=1;exitDx=0;exitDy=0;entryX=0.75;entryY=0;entryDx=0;entryDy=0;labelBackgroundColor=#ffffff;endArrow=classic;endFill=1;fontFamily=Verdana;fillColor=#76608a;strokeColor=#432D57;" parent="WIyWlLk6GJQsqaUBKTNV-1" source="zcjfyeGeoYEevY5XhN1h-31" target="zcjfyeGeoYEevY5XhN1h-38" edge="1">
                    <mxGeometry relative="1" as="geometry"/>
                </mxCell>
                <mxCell id="zcjfyeGeoYEevY5XhN1h-31" value="Histogram" style="rounded=1;whiteSpace=wrap;html=1;fontSize=12;glass=0;strokeWidth=1;shadow=0;fontFamily=Verdana;fillColor=#f8cecc;strokeColor=#b85450;gradientColor=#ea6b66;" parent="WIyWlLk6GJQsqaUBKTNV-1" vertex="1">
                    <mxGeometry x="590" y="200" width="120" height="40" as="geometry"/>
                </mxCell>
                <mxCell id="zcjfyeGeoYEevY5XhN1h-18" value="np ndarray " style="text;html=1;strokeColor=none;fillColor=none;align=center;verticalAlign=middle;whiteSpace=wrap;rounded=0;labelBackgroundColor=#7EA6E0;fontFamily=Verdana;" parent="WIyWlLk6GJQsqaUBKTNV-1" vertex="1">
                    <mxGeometry x="700" y="150" width="40" height="20" as="geometry"/>
                </mxCell>
                <mxCell id="zcjfyeGeoYEevY5XhN1h-35" value="npa" style="text;html=1;strokeColor=none;fillColor=none;align=center;verticalAlign=middle;whiteSpace=wrap;rounded=0;labelBackgroundColor=#7EA6E0;fontFamily=Verdana;" parent="WIyWlLk6GJQsqaUBKTNV-1" vertex="1">
                    <mxGeometry x="320" y="150" width="40" height="20" as="geometry"/>
                </mxCell>
                <mxCell id="zcjfyeGeoYEevY5XhN1h-36" value="filter size (int, int)" style="text;html=1;strokeColor=none;fillColor=none;align=center;verticalAlign=middle;whiteSpace=wrap;rounded=0;labelBackgroundColor=#CC0000;fontFamily=Verdana;" parent="WIyWlLk6GJQsqaUBKTNV-1" vertex="1">
                    <mxGeometry x="580" y="90" width="50" height="20" as="geometry"/>
                </mxCell>
                <mxCell id="zcjfyeGeoYEevY5XhN1h-37" value="npa" style="text;html=1;strokeColor=none;fillColor=none;align=center;verticalAlign=middle;whiteSpace=wrap;rounded=0;labelBackgroundColor=#7EA6E0;fontFamily=Verdana;" parent="WIyWlLk6GJQsqaUBKTNV-1" vertex="1">
                    <mxGeometry x="460" y="70" width="40" height="20" as="geometry"/>
                </mxCell>
                <mxCell id="zcjfyeGeoYEevY5XhN1h-136" style="edgeStyle=orthogonalEdgeStyle;rounded=0;orthogonalLoop=1;jettySize=auto;html=1;exitX=0;exitY=0.5;exitDx=0;exitDy=0;entryX=1.043;entryY=0.79;entryDx=0;entryDy=0;entryPerimeter=0;labelBackgroundColor=#ffffff;endArrow=classic;endFill=1;fontFamily=Verdana;" parent="WIyWlLk6GJQsqaUBKTNV-1" source="zcjfyeGeoYEevY5XhN1h-38" target="zcjfyeGeoYEevY5XhN1h-25" edge="1">
                    <mxGeometry relative="1" as="geometry"/>
                </mxCell>
                <mxCell id="zcjfyeGeoYEevY5XhN1h-38" value="Descriptive Stats (mean, var, skew, etc.)" style="rounded=1;whiteSpace=wrap;html=1;fontFamily=Verdana;fillColor=#f8cecc;strokeColor=#b85450;gradientColor=#ea6b66;" parent="WIyWlLk6GJQsqaUBKTNV-1" vertex="1">
                    <mxGeometry x="590" y="300" width="120" height="50" as="geometry"/>
                </mxCell>
                <mxCell id="zcjfyeGeoYEevY5XhN1h-39" value="None" style="text;html=1;strokeColor=none;fillColor=none;align=center;verticalAlign=middle;whiteSpace=wrap;rounded=0;labelBackgroundColor=#CC0000;fontFamily=Verdana;" parent="WIyWlLk6GJQsqaUBKTNV-1" vertex="1">
                    <mxGeometry x="190" y="100" width="40" height="20" as="geometry"/>
                </mxCell>
                <mxCell id="zcjfyeGeoYEevY5XhN1h-66" style="edgeStyle=orthogonalEdgeStyle;rounded=0;orthogonalLoop=1;jettySize=auto;html=1;exitX=0.25;exitY=1;exitDx=0;exitDy=0;labelBackgroundColor=#ffffff;endArrow=classic;endFill=1;fontFamily=Verdana;fillColor=#e3c800;strokeColor=#B09500;" parent="WIyWlLk6GJQsqaUBKTNV-1" source="zcjfyeGeoYEevY5XhN1h-43" edge="1">
                    <mxGeometry relative="1" as="geometry">
                        <mxPoint x="508" y="450" as="targetPoint"/>
                        <Array as="points">
                            <mxPoint x="587" y="550"/>
                            <mxPoint x="508" y="550"/>
                        </Array>
                    </mxGeometry>
                </mxCell>
                <mxCell id="zcjfyeGeoYEevY5XhN1h-43" value="Stat &amp;gt;&amp;nbsp; threshold" style="rounded=1;whiteSpace=wrap;html=1;fontFamily=Verdana;fillColor=#dae8fc;strokeColor=#6c8ebf;" parent="WIyWlLk6GJQsqaUBKTNV-1" vertex="1">
                    <mxGeometry x="557" y="580" width="120" height="60" as="geometry"/>
                </mxCell>
                <mxCell id="zcjfyeGeoYEevY5XhN1h-49" value="freqs, counts (npa, npa) " style="text;html=1;strokeColor=none;fillColor=none;align=center;verticalAlign=middle;whiteSpace=wrap;rounded=0;labelBackgroundColor=#7EA6E0;fontFamily=Verdana;" parent="WIyWlLk6GJQsqaUBKTNV-1" vertex="1">
                    <mxGeometry x="700" y="245" width="56" height="20" as="geometry"/>
                </mxCell>
                <mxCell id="zcjfyeGeoYEevY5XhN1h-50" value="(float, float...) " style="text;html=1;strokeColor=none;fillColor=none;align=center;verticalAlign=middle;whiteSpace=wrap;rounded=0;labelBackgroundColor=#7EA6E0;fontFamily=Verdana;" parent="WIyWlLk6GJQsqaUBKTNV-1" vertex="1">
                    <mxGeometry x="700" y="340" width="56" height="20" as="geometry"/>
                </mxCell>
                <mxCell id="zcjfyeGeoYEevY5XhN1h-52" value="boolean" style="text;html=1;strokeColor=none;fillColor=none;align=center;verticalAlign=middle;whiteSpace=wrap;rounded=0;labelBackgroundColor=#7EA6E0;fontFamily=Verdana;" parent="WIyWlLk6GJQsqaUBKTNV-1" vertex="1">
                    <mxGeometry x="660" y="630" width="56" height="20" as="geometry"/>
                </mxCell>
                <mxCell id="zcjfyeGeoYEevY5XhN1h-53" value="stat,threshold" style="text;html=1;strokeColor=none;fillColor=none;align=center;verticalAlign=middle;whiteSpace=wrap;rounded=0;labelBackgroundColor=#CC0000;fontFamily=Verdana;" parent="WIyWlLk6GJQsqaUBKTNV-1" vertex="1">
                    <mxGeometry x="540" y="570" width="40" height="20" as="geometry"/>
                </mxCell>
                <mxCell id="zcjfyeGeoYEevY5XhN1h-56" value="None" style="text;html=1;strokeColor=none;fillColor=none;align=center;verticalAlign=middle;whiteSpace=wrap;rounded=0;labelBackgroundColor=#CC0000;fontFamily=Verdana;" parent="WIyWlLk6GJQsqaUBKTNV-1" vertex="1">
                    <mxGeometry x="557" y="190" width="50" height="20" as="geometry"/>
                </mxCell>
                <mxCell id="zcjfyeGeoYEevY5XhN1h-63" value="hex" style="text;html=1;strokeColor=none;fillColor=none;align=center;verticalAlign=middle;whiteSpace=wrap;rounded=0;labelBackgroundColor=#7EA6E0;fontFamily=Verdana;" parent="WIyWlLk6GJQsqaUBKTNV-1" vertex="1">
                    <mxGeometry x="320" y="400" width="40" height="20" as="geometry"/>
                </mxCell>
                <mxCell id="zcjfyeGeoYEevY5XhN1h-72" value="&lt;span style=&quot;background-color: rgb(255 , 217 , 102)&quot;&gt;Shady/Bright QA&lt;/span&gt;" style="edgeLabel;html=1;align=center;verticalAlign=middle;resizable=0;points=[];fontFamily=Verdana;" parent="WIyWlLk6GJQsqaUBKTNV-1" vertex="1" connectable="0">
                    <mxGeometry x="620" y="270" as="geometry"/>
                </mxCell>
                <mxCell id="zcjfyeGeoYEevY5XhN1h-74" value="&lt;span style=&quot;background-color: rgb(230 , 208 , 222)&quot;&gt;Blur QA&lt;br&gt;&lt;/span&gt;" style="edgeLabel;html=1;align=center;verticalAlign=middle;resizable=0;points=[];fontFamily=Verdana;" parent="WIyWlLk6GJQsqaUBKTNV-1" vertex="1" connectable="0">
                    <mxGeometry x="650" y="190" as="geometry">
                        <mxPoint x="6" y="-10" as="offset"/>
                    </mxGeometry>
                </mxCell>
                <mxCell id="zcjfyeGeoYEevY5XhN1h-75" value="&lt;span style=&quot;background-color: rgb(230 , 208 , 222)&quot;&gt;Blur QA&lt;br&gt;&lt;/span&gt;" style="edgeLabel;html=1;align=center;verticalAlign=middle;resizable=0;points=[];fontFamily=Verdana;" parent="WIyWlLk6GJQsqaUBKTNV-1" vertex="1" connectable="0">
                    <mxGeometry x="670" y="260" as="geometry">
                        <mxPoint x="6" y="-10" as="offset"/>
                    </mxGeometry>
                </mxCell>
                <mxCell id="zcjfyeGeoYEevY5XhN1h-89" value="&lt;h1&gt;Usage&lt;br&gt;&lt;/h1&gt;&lt;br&gt;&lt;p&gt;&lt;br&gt;&lt;/p&gt;&lt;p&gt;&lt;br&gt;&lt;/p&gt;&lt;p&gt;&lt;br&gt;&lt;/p&gt;&lt;p&gt;&lt;br&gt;&lt;/p&gt;&lt;p&gt;&lt;br&gt;&lt;/p&gt;&lt;p&gt;&lt;br&gt;&lt;/p&gt;&lt;p&gt;&lt;br&gt;&lt;/p&gt;&lt;p&gt;&lt;br&gt;&lt;/p&gt;&lt;p&gt;&lt;span style=&quot;background-color: rgb(241 , 156 , 153)&quot;&gt;Red box&lt;/span&gt;- processing operation&lt;/p&gt;&lt;p&gt;&lt;span style=&quot;background-color: rgb(212 , 225 , 245)&quot;&gt;Light blue box&lt;/span&gt;- comparison operation&lt;br&gt;&lt;/p&gt;" style="text;html=1;strokeColor=#996185;fillColor=#e6d0de;spacing=5;spacingTop=-20;whiteSpace=wrap;overflow=hidden;rounded=0;labelBackgroundColor=none;fontFamily=Verdana;gradientColor=#d5739d;fontColor=#0000CC;" parent="WIyWlLk6GJQsqaUBKTNV-1" vertex="1">
                    <mxGeometry y="10" width="190" height="500" as="geometry"/>
                </mxCell>
                <mxCell id="zcjfyeGeoYEevY5XhN1h-135" style="edgeStyle=orthogonalEdgeStyle;rounded=0;orthogonalLoop=1;jettySize=auto;html=1;exitX=0.5;exitY=0;exitDx=0;exitDy=0;entryX=0;entryY=0.5;entryDx=0;entryDy=0;labelBackgroundColor=#ffffff;endArrow=classic;endFill=1;fontFamily=Verdana;fillColor=#f8cecc;strokeColor=#b85450;" parent="WIyWlLk6GJQsqaUBKTNV-1" source="zcjfyeGeoYEevY5XhN1h-90" target="zcjfyeGeoYEevY5XhN1h-1" edge="1">
                    <mxGeometry relative="1" as="geometry"/>
                </mxCell>
                <mxCell id="zcjfyeGeoYEevY5XhN1h-90" value="Nearby Hamming Comparison" style="rounded=1;whiteSpace=wrap;html=1;fontSize=12;glass=0;strokeWidth=1;shadow=0;fontFamily=Verdana;fillColor=#dae8fc;strokeColor=#6c8ebf;" parent="WIyWlLk6GJQsqaUBKTNV-1" vertex="1">
                    <mxGeometry x="260" y="570" width="120" height="40" as="geometry"/>
                </mxCell>
                <mxCell id="zcjfyeGeoYEevY5XhN1h-96" style="edgeStyle=orthogonalEdgeStyle;rounded=0;orthogonalLoop=1;jettySize=auto;html=1;exitX=0;exitY=0.3;exitDx=0;exitDy=0;entryX=1;entryY=0.25;entryDx=0;entryDy=0;labelBackgroundColor=#ffffff;endArrow=classic;endFill=1;fontFamily=Verdana;fillColor=#f8cecc;strokeColor=#b85450;" parent="WIyWlLk6GJQsqaUBKTNV-1" source="zcjfyeGeoYEevY5XhN1h-92" target="zcjfyeGeoYEevY5XhN1h-90" edge="1">
                    <mxGeometry relative="1" as="geometry"/>
                </mxCell>
                <mxCell id="zcjfyeGeoYEevY5XhN1h-138" style="edgeStyle=orthogonalEdgeStyle;rounded=0;orthogonalLoop=1;jettySize=auto;html=1;exitX=1;exitY=0.5;exitDx=0;exitDy=0;entryX=0;entryY=0.5;entryDx=0;entryDy=0;labelBackgroundColor=#ffffff;endArrow=classic;endFill=1;fontFamily=Verdana;fillColor=#fff2cc;strokeColor=#d6b656;" parent="WIyWlLk6GJQsqaUBKTNV-1" source="zcjfyeGeoYEevY5XhN1h-92" target="zcjfyeGeoYEevY5XhN1h-43" edge="1">
                    <mxGeometry relative="1" as="geometry"/>
                </mxCell>
                <mxCell id="zcjfyeGeoYEevY5XhN1h-139" value="&lt;div&gt;descriptive &lt;br&gt;&lt;/div&gt;&lt;div&gt;stats&lt;/div&gt;" style="edgeLabel;html=1;align=center;verticalAlign=middle;resizable=0;points=[];fontFamily=Verdana;" parent="zcjfyeGeoYEevY5XhN1h-138" vertex="1" connectable="0">
                    <mxGeometry x="-0.4783" relative="1" as="geometry">
                        <mxPoint x="16" y="15" as="offset"/>
                    </mxGeometry>
                </mxCell>
                <mxCell id="zcjfyeGeoYEevY5XhN1h-92" value="Read from Analysis JSON DB" style="shape=cylinder;whiteSpace=wrap;html=1;boundedLbl=1;backgroundOutline=1;labelBackgroundColor=none;fontFamily=Verdana;fillColor=#e3c800;strokeColor=#B09500;fontColor=#ffffff;" parent="WIyWlLk6GJQsqaUBKTNV-1" vertex="1">
                    <mxGeometry x="430" y="595" width="70" height="100" as="geometry"/>
                </mxCell>
                <mxCell id="zcjfyeGeoYEevY5XhN1h-94" value="geographic radius" style="text;html=1;strokeColor=none;fillColor=none;align=center;verticalAlign=middle;whiteSpace=wrap;rounded=0;labelBackgroundColor=#CC0000;fontFamily=Verdana;" parent="WIyWlLk6GJQsqaUBKTNV-1" vertex="1">
                    <mxGeometry x="180" y="550" width="90" height="20" as="geometry"/>
                </mxCell>
                <mxCell id="zcjfyeGeoYEevY5XhN1h-95" value="JSON: matched image IDs" style="text;html=1;strokeColor=none;fillColor=none;align=center;verticalAlign=middle;whiteSpace=wrap;rounded=0;labelBackgroundColor=#7EA6E0;fontFamily=Verdana;" parent="WIyWlLk6GJQsqaUBKTNV-1" vertex="1">
                    <mxGeometry x="350" y="600" width="40" height="60" as="geometry"/>
                </mxCell>
                <mxCell id="zcjfyeGeoYEevY5XhN1h-98" value="&lt;div&gt;&lt;span style=&quot;background-color: transparent&quot;&gt;image IDs within &lt;br&gt;&lt;/span&gt;&lt;/div&gt;&lt;div&gt;&lt;span style=&quot;background-color: transparent&quot;&gt;radius, hashes&lt;/span&gt;&lt;/div&gt;" style="edgeLabel;html=1;align=center;verticalAlign=middle;resizable=0;points=[];fontFamily=Verdana;" parent="WIyWlLk6GJQsqaUBKTNV-1" vertex="1" connectable="0">
                    <mxGeometry x="300" y="540" as="geometry">
                        <mxPoint x="95" y="8" as="offset"/>
                    </mxGeometry>
                </mxCell>
                <mxCell id="zcjfyeGeoYEevY5XhN1h-100" value="hash" style="edgeLabel;html=1;align=center;verticalAlign=middle;resizable=0;points=[];fontFamily=Verdana;" parent="WIyWlLk6GJQsqaUBKTNV-1" vertex="1" connectable="0">
                    <mxGeometry x="407" y="340" as="geometry">
                        <mxPoint x="-20" y="-9" as="offset"/>
                    </mxGeometry>
                </mxCell>
                <mxCell id="zcjfyeGeoYEevY5XhN1h-106" value="None" style="text;html=1;strokeColor=none;fillColor=none;align=center;verticalAlign=middle;whiteSpace=wrap;rounded=0;labelBackgroundColor=#FFFF33;fontFamily=Verdana;" parent="WIyWlLk6GJQsqaUBKTNV-1" vertex="1">
                    <mxGeometry x="557" y="290" width="50" height="20" as="geometry"/>
                </mxCell>
                <mxCell id="zcjfyeGeoYEevY5XhN1h-117" style="edgeStyle=orthogonalEdgeStyle;rounded=0;orthogonalLoop=1;jettySize=auto;html=1;exitX=0.5;exitY=1;exitDx=0;exitDy=0;labelBackgroundColor=#ffffff;endArrow=classic;endFill=1;fontFamily=Verdana;entryX=0.5;entryY=1;entryDx=0;entryDy=0;" parent="WIyWlLk6GJQsqaUBKTNV-1" source="zcjfyeGeoYEevY5XhN1h-107" target="zcjfyeGeoYEevY5XhN1h-107" edge="1">
                    <mxGeometry relative="1" as="geometry"/>
                </mxCell>
                <mxCell id="zcjfyeGeoYEevY5XhN1h-107" value="Operation process description" style="rounded=1;whiteSpace=wrap;html=1;labelBackgroundColor=none;fontFamily=Verdana;" parent="WIyWlLk6GJQsqaUBKTNV-1" vertex="1">
                    <mxGeometry x="25" y="170" width="120" height="60" as="geometry"/>
                </mxCell>
                <mxCell id="zcjfyeGeoYEevY5XhN1h-110" value="Additional parameters" style="text;html=1;strokeColor=none;fillColor=none;align=center;verticalAlign=middle;whiteSpace=wrap;rounded=0;labelBackgroundColor=#FFFF33;fontFamily=Verdana;" parent="WIyWlLk6GJQsqaUBKTNV-1" vertex="1">
                    <mxGeometry x="20" y="160" width="40" height="20" as="geometry"/>
                </mxCell>
                <mxCell id="zcjfyeGeoYEevY5XhN1h-113" value="Output type" style="text;html=1;strokeColor=none;fillColor=none;align=center;verticalAlign=middle;whiteSpace=wrap;rounded=0;labelBackgroundColor=#7EA6E0;fontFamily=Verdana;" parent="WIyWlLk6GJQsqaUBKTNV-1" vertex="1">
                    <mxGeometry x="130" y="220" width="40" height="20" as="geometry"/>
                </mxCell>
                <mxCell id="zcjfyeGeoYEevY5XhN1h-122" style="edgeStyle=orthogonalEdgeStyle;rounded=0;orthogonalLoop=1;jettySize=auto;html=1;labelBackgroundColor=#ffffff;endArrow=classic;endFill=1;fontFamily=Verdana;" parent="WIyWlLk6GJQsqaUBKTNV-1" source="zcjfyeGeoYEevY5XhN1h-119" target="zcjfyeGeoYEevY5XhN1h-107" edge="1">
                    <mxGeometry relative="1" as="geometry"/>
                </mxCell>
                <mxCell id="zcjfyeGeoYEevY5XhN1h-119" value="Process output from previous stage" style="text;html=1;strokeColor=none;fillColor=none;align=center;verticalAlign=middle;whiteSpace=wrap;rounded=0;labelBackgroundColor=none;fontFamily=Verdana;" parent="WIyWlLk6GJQsqaUBKTNV-1" vertex="1">
                    <mxGeometry x="65" y="70" width="40" height="20" as="geometry"/>
                </mxCell>
                <mxCell id="zcjfyeGeoYEevY5XhN1h-125" value="&lt;h1&gt;&lt;font style=&quot;font-size: 24px&quot;&gt;Preprocessing Hash:&lt;/font&gt;&lt;/h1&gt;&lt;div style=&quot;font-size: 16px&quot;&gt;&lt;font style=&quot;font-size: 16px&quot;&gt;{&quot;Image ID&quot;: id, &quot;Microservices&quot;: {{&quot;Grayscale&quot;:none},{&quot;Resize&quot;:(16,16)}, {&quot;256-bit hash&quot;:None}}, &quot;Save to db&quot;: True}&lt;br&gt;&lt;/font&gt;&lt;/div&gt;" style="text;html=1;strokeColor=#b85450;fillColor=#f8cecc;spacing=5;spacingTop=-20;whiteSpace=wrap;overflow=hidden;rounded=0;labelBackgroundColor=none;fontFamily=Verdana;gradientColor=#ea6b66;" parent="WIyWlLk6GJQsqaUBKTNV-1" vertex="1">
                    <mxGeometry y="695" width="270" height="205" as="geometry"/>
                </mxCell>
                <mxCell id="zcjfyeGeoYEevY5XhN1h-128" value="&lt;h1&gt;&lt;font style=&quot;font-size: 24px&quot;&gt;Evaluation Hash:&lt;/font&gt;&lt;/h1&gt;&lt;div style=&quot;font-size: 16px&quot;&gt;&lt;font style=&quot;font-size: 16px&quot;&gt;{&quot;Nearby Hamming&quot;: 100 ft}&lt;br&gt;&lt;/font&gt;&lt;/div&gt;" style="text;html=1;strokeColor=#b85450;fillColor=#f8cecc;spacing=5;spacingTop=-20;whiteSpace=wrap;overflow=hidden;rounded=0;labelBackgroundColor=none;fontFamily=Verdana;gradientColor=#ea6b66;" parent="WIyWlLk6GJQsqaUBKTNV-1" vertex="1">
                    <mxGeometry y="900" width="270" height="140" as="geometry"/>
                </mxCell>
                <mxCell id="zcjfyeGeoYEevY5XhN1h-132" value="" style="endArrow=none;html=1;labelBackgroundColor=#ffffff;fontFamily=Verdana;exitX=0;exitY=1;exitDx=0;exitDy=0;" parent="WIyWlLk6GJQsqaUBKTNV-1" source="zcjfyeGeoYEevY5XhN1h-89" edge="1">
                    <mxGeometry width="50" height="50" relative="1" as="geometry">
                        <mxPoint x="160" y="510" as="sourcePoint"/>
                        <mxPoint x="820" y="510" as="targetPoint"/>
                    </mxGeometry>
                </mxCell>
                <mxCell id="zcjfyeGeoYEevY5XhN1h-137" value="grayscale stats" style="edgeLabel;html=1;align=center;verticalAlign=middle;resizable=0;points=[];fontFamily=Verdana;" parent="WIyWlLk6GJQsqaUBKTNV-1" vertex="1" connectable="0">
                    <mxGeometry x="557" y="340" as="geometry">
                        <mxPoint x="-20" y="-9" as="offset"/>
                    </mxGeometry>
                </mxCell>
                <mxCell id="zcjfyeGeoYEevY5XhN1h-140" value="&lt;h1&gt;&lt;font style=&quot;font-size: 24px&quot;&gt;Preprocessing&amp;nbsp; Shade/Bright:&lt;/font&gt;&lt;/h1&gt;&lt;div style=&quot;font-size: 16px&quot;&gt;&lt;font style=&quot;font-size: 16px&quot;&gt;{&quot;Image ID&quot;: id, &quot;Microservices&quot;: {{&quot;Grayscale&quot;:none}, {&quot;Histogram&quot;: none}, {&quot;Descriptive Stats&quot;:(&quot;skew, &quot;kurt&quot;)} &quot;Save to db&quot;: True, }&lt;br&gt;&lt;/font&gt;&lt;/div&gt;" style="text;html=1;strokeColor=#6c8ebf;fillColor=#dae8fc;spacing=5;spacingTop=-20;whiteSpace=wrap;overflow=hidden;rounded=0;labelBackgroundColor=none;fontFamily=Verdana;gradientColor=#7ea6e0;" parent="WIyWlLk6GJQsqaUBKTNV-1" vertex="1">
                    <mxGeometry x="270" y="695" width="280" height="205" as="geometry"/>
                </mxCell>
                <mxCell id="zcjfyeGeoYEevY5XhN1h-141" value="&lt;h1&gt;&lt;font style=&quot;font-size: 24px&quot;&gt;Evaluation Shade/Bright:&lt;/font&gt;&lt;/h1&gt;&lt;div style=&quot;font-size: 16px&quot;&gt;&lt;font style=&quot;font-size: 16px&quot;&gt;{&quot;Stat Threshold&quot;: {{&quot;skew&quot;: 3}, {&quot;kurt&quot;: 10}}}&lt;br&gt;&lt;/font&gt;&lt;/div&gt;" style="text;html=1;strokeColor=#6c8ebf;fillColor=#dae8fc;spacing=5;spacingTop=-20;whiteSpace=wrap;overflow=hidden;rounded=0;labelBackgroundColor=none;fontFamily=Verdana;gradientColor=#7ea6e0;" parent="WIyWlLk6GJQsqaUBKTNV-1" vertex="1">
                    <mxGeometry x="270" y="900" width="280" height="140" as="geometry"/>
                </mxCell>
                <mxCell id="zcjfyeGeoYEevY5XhN1h-142" value="&lt;h1&gt;&lt;font style=&quot;font-size: 24px&quot;&gt;Preprocessing&amp;nbsp; Blur:&lt;/font&gt;&lt;/h1&gt;&lt;div style=&quot;font-size: 16px&quot;&gt;&lt;font style=&quot;font-size: 16px&quot;&gt;{&quot;Image ID&quot;: id, &quot;Microservices&quot;: {{&quot;Laplace&quot;: (3,3)},{&quot;Histogram&quot;: none, &quot;Descriptive Stats&quot;: (&quot;var&quot;, &quot;skew&quot;)}, {&quot;256-bit hash&quot;:None}}, &quot;Save to db&quot;: True}&lt;br&gt;&lt;/font&gt;&lt;/div&gt;" style="text;html=1;strokeColor=#d79b00;fillColor=#ffcd28;spacing=5;spacingTop=-20;whiteSpace=wrap;overflow=hidden;rounded=0;labelBackgroundColor=none;fontFamily=Verdana;gradientColor=#ffa500;" parent="WIyWlLk6GJQsqaUBKTNV-1" vertex="1">
                    <mxGeometry x="547" y="695" width="280" height="205" as="geometry"/>
                </mxCell>
                <mxCell id="zcjfyeGeoYEevY5XhN1h-143" value="&lt;h1&gt;&lt;font style=&quot;font-size: 24px&quot;&gt;Evaluation Blur:&lt;/font&gt;&lt;/h1&gt;&lt;div style=&quot;font-size: 16px&quot;&gt;&lt;font style=&quot;font-size: 16px&quot;&gt;{&quot;Stat Threshold&quot;: {{&quot;var&quot;: 1e-2}, {&quot;skew&quot;: 3}}}&lt;br&gt;&lt;/font&gt;&lt;/div&gt;" style="text;html=1;strokeColor=#d79b00;fillColor=#ffcd28;spacing=5;spacingTop=-20;whiteSpace=wrap;overflow=hidden;rounded=0;labelBackgroundColor=none;fontFamily=Verdana;gradientColor=#ffa500;" parent="WIyWlLk6GJQsqaUBKTNV-1" vertex="1">
                    <mxGeometry x="547" y="900" width="280" height="140" as="geometry"/>
                </mxCell>
                <mxCell id="1" style="edgeStyle=orthogonalEdgeStyle;rounded=0;orthogonalLoop=1;jettySize=auto;html=1;exitX=0.5;exitY=1;exitDx=0;exitDy=0;fontColor=#0000CC;" edge="1" parent="WIyWlLk6GJQsqaUBKTNV-1" source="zcjfyeGeoYEevY5XhN1h-56" target="zcjfyeGeoYEevY5XhN1h-56">
                    <mxGeometry relative="1" as="geometry"/>
                </mxCell>
            </root>
        </mxGraphModel>
    </diagram>
</mxfile>